<?xml version="1.0" encoding="UTF-8" standalone="no"?>
<!-- Created with Inkscape (http://www.inkscape.org/) -->

<svg
   xmlns:dc="http://purl.org/dc/elements/1.1/"
   xmlns:cc="http://creativecommons.org/ns#"
   xmlns:rdf="http://www.w3.org/1999/02/22-rdf-syntax-ns#"
   xmlns:svg="http://www.w3.org/2000/svg"
   xmlns="http://www.w3.org/2000/svg"
   xmlns:sodipodi="http://sodipodi.sourceforge.net/DTD/sodipodi-0.dtd"
   xmlns:inkscape="http://www.inkscape.org/namespaces/inkscape"
   width="247.98041mm"
   height="36.596317mm"
   viewBox="0 0 247.98041 36.596317"
   version="1.1"
   id="svg8"
   inkscape:version="0.92.3 (2405546, 2018-03-11)"
   sodipodi:docname="logo_vecto.svg">
  <defs
     id="defs2" />
  <sodipodi:namedview
     id="base"
     pagecolor="#ffffff"
     bordercolor="#666666"
     borderopacity="1.0"
     inkscape:pageopacity="0.0"
     inkscape:pageshadow="2"
     inkscape:zoom="1.6396039"
     inkscape:cx="458.53124"
     inkscape:cy="-7.9251833"
     inkscape:document-units="mm"
     inkscape:current-layer="layer1"
     showgrid="false"
     inkscape:window-width="1920"
     inkscape:window-height="1016"
     inkscape:window-x="0"
     inkscape:window-y="27"
     inkscape:window-maximized="1" />
  <metadata
     id="metadata5">
    <rdf:RDF>
      <cc:Work
         rdf:about="">
        <dc:format>image/svg+xml</dc:format>
        <dc:type
           rdf:resource="http://purl.org/dc/dcmitype/StillImage" />
        <dc:title></dc:title>
      </cc:Work>
    </rdf:RDF>
  </metadata>
  <g
     inkscape:label="Calque 1"
     inkscape:groupmode="layer"
     id="layer1"
     transform="translate(-22.439896,-78.766237)">
    <g
       aria-label="Wildo Coda"
       style="font-style:normal;font-weight:normal;font-size:53.81811142px;line-height:1.25;font-family:sans-serif;letter-spacing:0px;word-spacing:0px;fill:#000000;fill-opacity:1;stroke:none;stroke-width:1.34545267"
       id="text3715">
      <path
         d="m 40.738054,99.217119 15.607252,15.176711 c 0.538181,0.53818 0.807271,0.69963 1.345453,0.69963 0.753453,0 1.345452,-0.592 1.345452,-1.34545 V 80.38078 c 0,-0.753454 -0.591999,-1.345453 -1.345452,-1.345453 -0.753454,0 -1.345453,0.591999 -1.345453,1.345453 v 30.13814 l -14.2618,-13.831252 c -0.538181,-0.538181 -0.807271,-0.699636 -1.345452,-0.699636 -0.538182,0 -0.807272,0.161455 -1.345453,0.699636 l -14.2618,13.831252 V 80.38078 c 0,-0.753454 -0.591999,-1.345453 -1.345453,-1.345453 -0.753453,0 -1.345452,0.591999 -1.345452,1.345453 v 33.36723 c 0,0.75345 0.591999,1.34545 1.345452,1.34545 0.538182,0 0.807272,-0.16145 1.345453,-0.69963 z"
         style="font-style:normal;font-variant:normal;font-weight:normal;font-stretch:normal;font-family:Estilo;-inkscape-font-specification:Estilo;stroke-width:1.34545267"
         id="path9" />
      <path
         d="m 72.53699,89.153132 c 0,-0.753453 -0.591999,-1.345453 -1.345453,-1.345453 -0.753453,0 -1.345452,0.592 -1.345452,1.345453 v 15.822528 c 0,0.75345 0.591999,1.34545 1.345452,1.34545 0.753454,0 1.345453,-0.592 1.345453,-1.34545 z"
         style="font-style:normal;font-variant:normal;font-weight:normal;font-stretch:normal;font-family:Estilo;-inkscape-font-specification:Estilo;stroke-width:1.34545267"
         id="path11" />
      <path
         d="m 85.991519,89.20695 c 0,-0.753453 -0.591999,-1.291634 -1.345453,-1.291634 -0.753453,0 -1.345453,0.591999 -1.345453,1.345452 v 15.607252 c 0,0.75345 0.592,1.34545 1.345453,1.34545 h 12.916347 c 0.753453,0 1.345453,-0.53818 1.345453,-1.29163 0,-0.75345 -0.592,-1.29164 -1.345453,-1.29164 H 85.991519 Z"
         style="font-style:normal;font-variant:normal;font-weight:normal;font-stretch:normal;font-family:Estilo;-inkscape-font-specification:Estilo;stroke-width:1.34545267"
         id="path13" />
      <path
         d="m 106.19433,87.915316 c -0.75345,0 -1.34545,0.591999 -1.34545,1.345452 v 15.607252 c 0,0.75345 0.592,1.34545 1.34545,1.34545 h 5.91999 c 5.22036,0 9.41817,-3.92872 9.41817,-9.149075 0,-5.220357 -4.19781,-9.149079 -9.41817,-9.149079 z m 5.91999,2.583269 c 3.71345,0 6.72727,2.85236 6.72727,6.56581 0,3.713445 -3.01382,6.565805 -6.72727,6.565805 h -4.57454 V 90.498585 Z"
         style="font-style:normal;font-variant:normal;font-weight:normal;font-stretch:normal;font-family:Estilo;-inkscape-font-specification:Estilo;stroke-width:1.34545267"
         id="path15" />
      <path
         d="m 128.02851,97.064395 c 0,5.220355 4.19781,9.418165 9.41817,9.418165 5.22036,0 9.41817,-4.19781 9.41817,-9.418165 0,-5.220357 -4.19781,-9.41817 -9.41817,-9.41817 -5.22036,0 -9.41817,4.197813 -9.41817,9.41817 z m 2.69091,0 c 0,-3.71345 3.01381,-6.727264 6.72726,-6.727264 3.71345,0 6.72727,3.013814 6.72727,6.727264 0,3.713445 -3.01382,6.727265 -6.72727,6.727265 -3.71345,0 -6.72726,-3.01382 -6.72726,-6.727265 z"
         style="font-style:normal;font-variant:normal;font-weight:normal;font-stretch:normal;font-family:Estilo;-inkscape-font-specification:Estilo;stroke-width:1.34545267"
         id="path17" />
      <path
         d="m 194.56956,108.09711 c -2.85236,2.85236 -6.72726,4.57454 -11.03271,4.57454 -8.6109,0 -15.60725,-6.99636 -15.60725,-15.607255 0,-8.610898 6.99635,-15.607253 15.60725,-15.607253 4.30545,0 8.23417,1.775998 11.03271,4.57454 0.53819,0.538181 1.39928,0.538181 1.93746,0 0.53818,-0.538181 0.53818,-1.345453 0,-1.883634 -3.28291,-3.282905 -7.91127,-5.381811 -12.97017,-5.381811 -10.1178,0 -18.29816,8.180353 -18.29816,18.298158 0,10.117805 8.18036,18.298155 18.29816,18.298155 5.0589,0 9.63344,-2.04509 12.97017,-5.38181 0.53818,-0.53818 0.53818,-1.34545 0,-1.88363 -0.53818,-0.53818 -1.39927,-0.53818 -1.93746,0 z"
         style="font-style:normal;font-variant:normal;font-weight:normal;font-stretch:normal;font-family:Estilo;-inkscape-font-specification:Estilo;stroke-width:1.34545267"
         id="path19" />
      <path
         d="m 203.39488,97.064395 c 0,5.220355 4.19782,9.418165 9.41817,9.418165 5.22036,0 9.41817,-4.19781 9.41817,-9.418165 0,-5.220357 -4.19781,-9.41817 -9.41817,-9.41817 -5.22035,0 -9.41817,4.197813 -9.41817,9.41817 z m 2.69091,0 c 0,-3.71345 3.01381,-6.727264 6.72726,-6.727264 3.71345,0 6.72727,3.013814 6.72727,6.727264 0,3.713445 -3.01382,6.727265 -6.72727,6.727265 -3.71345,0 -6.72726,-3.01382 -6.72726,-6.727265 z"
         style="font-style:normal;font-variant:normal;font-weight:normal;font-stretch:normal;font-family:Estilo;-inkscape-font-specification:Estilo;stroke-width:1.34545267"
         id="path21" />
      <path
         d="m 232.22541,87.915316 c -0.75345,0 -1.34545,0.591999 -1.34545,1.345452 v 15.607252 c 0,0.75345 0.592,1.34545 1.34545,1.34545 h 5.91999 c 5.22036,0 9.41817,-3.92872 9.41817,-9.149075 0,-5.220357 -4.19781,-9.149079 -9.41817,-9.149079 z m 5.91999,2.583269 c 3.71345,0 6.72727,2.85236 6.72727,6.56581 0,3.713445 -3.01382,6.565805 -6.72727,6.565805 h -4.57454 V 90.498585 Z"
         style="font-style:normal;font-variant:normal;font-weight:normal;font-stretch:normal;font-family:Estilo;-inkscape-font-specification:Estilo;stroke-width:1.34545267"
         id="path23" />
      <path
         d="m 254.0596,105.62147 c -0.53818,0.53819 -0.80727,0.69964 -1.34545,0.69964 -0.75345,0 -1.34545,-0.592 -1.34545,-1.34545 0,-0.37673 0.16145,-0.69964 0.43054,-0.96873 L 267.7294,88.507315 c 0.53818,-0.538181 0.80727,-0.699636 1.34545,-0.699636 0.75346,0 1.34546,0.592 1.34546,1.345453 v 15.822528 c 0,0.75345 -0.592,1.34545 -1.34546,1.34545 -0.75345,0 -1.34545,-0.592 -1.34545,-1.34545 v -4.25163 h -8.6109 z m 13.6698,-13.239251 -5.91999,5.758538 h 5.91999 z"
         style="font-style:normal;font-variant:normal;font-weight:normal;font-stretch:normal;font-family:Estilo;-inkscape-font-specification:Estilo;stroke-width:1.34545267"
         id="path25" />
    </g>
  </g>
</svg>
